<?xml version="1.0" standalone="no"?>
<!DOCTYPE svg PUBLIC "-//W3C//DTD SVG 20010904//EN"
 "http://www.w3.org/TR/2001/REC-SVG-20010904/DTD/svg10.dtd">
<svg version="1.0" xmlns="http://www.w3.org/2000/svg"
 width="334.000000pt" height="344.000000pt" viewBox="0 0 334.000000 344.000000"
 preserveAspectRatio="xMidYMid meet">

<g transform="translate(0.000000,344.000000) scale(0.100000,-0.100000)"
fill="#000000" stroke="none">
<path d="M2034 2728 c161 -217 280 -471 333 -713 8 -38 18 -135 22 -215 l8
-145 2 115 c2 63 5 109 8 101 4 -9 46 27 124 105 65 65 115 122 112 128 -4 6
3 2 15 -8 12 -11 22 -15 21 -10 0 5 -160 171 -355 369 -298 302 -344 346 -290
273z"/>
<path d="M2382 1615 c0 -16 2 -22 5 -12 2 9 2 23 0 30 -3 6 -5 -1 -5 -18z"/>
<path d="M1027 905 c-54 -8 -106 -15 -114 -17 -10 -2 47 -62 153 -162 93 -88
157 -147 141 -131 l-27 30 117 117 c113 113 116 118 92 127 -39 16 -6 12 41
-4 23 -8 48 -15 54 -14 33 2 -136 49 -211 58 -105 13 -120 13 -246 -4z"/>
<path d="M1513 843 c9 -2 23 -2 30 0 6 3 -1 5 -18 5 -16 0 -22 -2 -12 -5z"/>
<path d="M1628 843 c6 -2 18 -2 25 0 6 3 1 5 -13 5 -14 0 -19 -2 -12 -5z"/>
</g>
</svg>
